<svg xmlns="http://www.w3.org/2000/svg" width="24.5" height="24.5" viewBox="0 0 24.5 24.5">
  <g id="Employee" transform="translate(-9.75 -9.75)">
    <path id="Path_7766" data-name="Path 7766" d="M37.443,111.269a.185.185,0,0,1-.185-.185V106.6a.185.185,0,1,1,.369,0v4.482A.185.185,0,0,1,37.443,111.269Z" transform="translate(-22.226 -78.618)" fill="#9098d8" stroke="#9098d8" stroke-width="0.5"/>
    <path id="Path_7767" data-name="Path 7767" d="M21.431,82.583a.185.185,0,0,1-.185-.185V78.485a.185.185,0,1,1,.369,0V82.4A.185.185,0,0,1,21.431,82.583Z" transform="translate(-9.17 -55.691)" fill="#9098d8" stroke="#9098d8" stroke-width="0.5"/>
    <path id="Path_7768" data-name="Path 7768" d="M37.443,111.269a.185.185,0,0,1-.185-.185V106.6a.185.185,0,1,1,.369,0v4.482A.185.185,0,0,1,37.443,111.269Z" transform="translate(-22.226 -78.618)" fill="#9098d8" stroke="#9098d8" stroke-width="0.5"/>
    <path id="Path_7769" data-name="Path 7769" d="M53.454,82.583a.185.185,0,0,1-.185-.185V78.485a.185.185,0,1,1,.369,0V82.4A.185.185,0,0,1,53.454,82.583Z" transform="translate(-35.281 -55.691)" fill="#9098d8" stroke="#9098d8" stroke-width="0.5"/>
    <path id="Path_7770" data-name="Path 7770" d="M16.565,62.523a1.535,1.535,0,0,1-1.349-.8,1.535,1.535,0,0,1-1.348.8,1.794,1.794,0,0,1-1.792-1.792V56.088a1.179,1.179,0,0,1-.814.325h-.079A1.184,1.184,0,0,1,10,55.231V48.088a3.112,3.112,0,0,1,3.109-3.107.185.185,0,0,1,.145.07l1.962,2.494,1.963-2.494a.185.185,0,0,1,.145-.071,3.112,3.112,0,0,1,3.109,3.107v7.142a1.184,1.184,0,0,1-1.183,1.183h-.079a1.18,1.18,0,0,1-.814-.325v4.643A1.794,1.794,0,0,1,16.565,62.523ZM15.4,60.99a1.165,1.165,0,0,0,1.164,1.164,1.424,1.424,0,0,0,1.423-1.422v-5.5a.185.185,0,0,1,.369,0,.815.815,0,0,0,.814.814h.079a.815.815,0,0,0,.814-.814V48.088a2.742,2.742,0,0,0-2.651-2.737l-2.051,2.607a.191.191,0,0,1-.29,0l-2.051-2.607a2.742,2.742,0,0,0-2.651,2.737v7.142a.815.815,0,0,0,.814.814h.079a.815.815,0,0,0,.814-.814.185.185,0,1,1,.369,0v5.5a1.424,1.424,0,0,0,1.423,1.422,1.165,1.165,0,0,0,1.163-1.164.185.185,0,0,1,.369,0Z" transform="translate(0 -28.523)" fill="#9098d8" stroke="#9098d8" stroke-width="0.5"/>
    <path id="Path_7771" data-name="Path 7771" d="M25.649,16.34a3.028,3.028,0,0,1-2.855-3.17A3.028,3.028,0,0,1,25.649,10,3.028,3.028,0,0,1,28.5,13.17,3.028,3.028,0,0,1,25.649,16.34Zm0-5.971a2.661,2.661,0,0,0-2.486,2.8,2.66,2.66,0,0,0,2.486,2.8,2.661,2.661,0,0,0,2.486-2.8,2.661,2.661,0,0,0-2.486-2.8Z" transform="translate(-10.432)" fill="#9098d8" stroke="#9098d8" stroke-width="0.5"/>
    <path id="Path_7772" data-name="Path 7772" d="M74.271,77.529H64.7a.185.185,0,0,1,0-.369h9.571a.185.185,0,0,1,0,.369Z" transform="translate(-44.451 -54.761)" fill="#9098d8" stroke="#9098d8" stroke-width="0.5"/>
    <path id="Path_7773" data-name="Path 7773" d="M89.06,50.406H82.837a.185.185,0,0,1-.185-.185V34.345a.185.185,0,0,1,.185-.185H89.06a.185.185,0,0,1,0,.369H83.021V50.037H89.06a.185.185,0,1,1,0,.369Z" transform="translate(-59.239 -19.7)" fill="#9098d8" stroke="#9098d8" stroke-width="0.5"/>
    <path id="Path_7774" data-name="Path 7774" d="M120.54,70.7h-4a.185.185,0,0,1-.185-.185v-4a.185.185,0,0,1,.185-.185h4a.185.185,0,0,1,.185.185v4A.185.185,0,0,1,120.54,70.7Zm-3.81-.369h3.626V66.709h-3.626Z" transform="translate(-86.724 -45.939)" fill="#9098d8" stroke="#9098d8" stroke-width="0.5"/>
    <path id="Path_7775" data-name="Path 7775" d="M120.54,27.7h-4a.185.185,0,0,1-.185-.185v-4a.185.185,0,0,1,.185-.185h4a.185.185,0,0,1,.185.185v4A.185.185,0,0,1,120.54,27.7Zm-3.81-.369h3.626V23.709h-3.626Z" transform="translate(-86.724 -10.877)" fill="#9098d8" stroke="#9098d8" stroke-width="0.5"/>
    <path id="Path_7776" data-name="Path 7776" d="M120.54,113.7h-4a.185.185,0,0,1-.185-.185v-4a.185.185,0,0,1,.185-.185h4a.185.185,0,0,1,.185.185v4A.185.185,0,0,1,120.54,113.7Zm-3.81-.369h3.626v-3.626h-3.626Z" transform="translate(-86.724 -81)" fill="#9098d8" stroke="#9098d8" stroke-width="0.5"/>
    <path id="Path_7777" data-name="Path 7777" d="M124.447,30.569H122.74a.185.185,0,0,1,0-.369h1.708a.185.185,0,1,1,0,.369Z" transform="translate(-91.776 -16.471)" fill="#9098d8" stroke="#9098d8" stroke-width="0.5"/>
    <path id="Path_7778" data-name="Path 7778" d="M124.447,38.487H122.74a.185.185,0,1,1,0-.369h1.708a.185.185,0,1,1,0,.369Z" transform="translate(-91.776 -22.927)" fill="#9098d8" stroke="#9098d8" stroke-width="0.5"/>
    <path id="Path_7779" data-name="Path 7779" d="M124.447,73.569H122.74a.185.185,0,1,1,0-.369h1.708a.185.185,0,0,1,0,.369Z" transform="translate(-91.776 -51.532)" fill="#9098d8" stroke="#9098d8" stroke-width="0.5"/>
    <path id="Path_7780" data-name="Path 7780" d="M124.447,81.487H122.74a.185.185,0,1,1,0-.369h1.708a.185.185,0,0,1,0,.369Z" transform="translate(-91.776 -57.989)" fill="#9098d8" stroke="#9098d8" stroke-width="0.5"/>
    <path id="Path_7781" data-name="Path 7781" d="M124.447,116.569H122.74a.185.185,0,1,1,0-.369h1.708a.185.185,0,0,1,0,.369Z" transform="translate(-91.776 -86.594)" fill="#9098d8" stroke="#9098d8" stroke-width="0.5"/>
    <path id="Path_7782" data-name="Path 7782" d="M124.447,124.487H122.74a.185.185,0,1,1,0-.369h1.708a.185.185,0,0,1,0,.369Z" transform="translate(-91.776 -93.05)" fill="#9098d8" stroke="#9098d8" stroke-width="0.5"/>
  </g>
</svg>
