<svg id="leave-management" xmlns="http://www.w3.org/2000/svg" width="24" height="24" viewBox="0 0 24 24">
  <path id="Path_7747" data-name="Path 7747" d="M480,480h.774v.774H480Zm0,0" transform="translate(-456.774 -456.774)" fill="#9098d8"/>
  <path id="Path_7748" data-name="Path 7748" d="M0,480H.774v.774H0Zm0,0" transform="translate(0 -456.774)" fill="#9098d8"/>
  <path id="Path_7749" data-name="Path 7749" d="M24,17.032a6.979,6.979,0,0,0-4.954-6.669,1.3,1.3,0,0,0-.514-2.052L11.6,5.54a2.685,2.685,0,0,0-.561-.157L9.29,5.091V4.823A2.315,2.315,0,0,0,10.065,3.1V2.323a2.323,2.323,0,0,0-4.645,0V3.1a2.316,2.316,0,0,0,.774,1.726v.317l-2.69.9a1.159,1.159,0,0,0-.794,1.1v6.216a1.34,1.34,0,0,0,.136.581H.774A.775.775,0,0,0,0,14.71v3.1a.775.775,0,0,0,.774.774H4.645v4.645h-3.1V24h20.9v-.774H20.21A6.971,6.971,0,0,0,24,17.032Zm-.774,0a6.194,6.194,0,1,1-6.194-6.194A6.2,6.2,0,0,1,23.226,17.032ZM10.839,13.855V8.516h.7l4.385,1.644A6.978,6.978,0,0,0,10.839,13.855ZM6.194,2.323a1.548,1.548,0,1,1,3.1,0V3.1a1.548,1.548,0,1,1-3.1,0ZM5.108,14.71,3.591,15.721a.905.905,0,0,1-.989,0L1.085,14.71Zm-4.334.723,1.4.932a1.665,1.665,0,0,0,1.848,0l1.4-.932v2.374H.774Zm4.645,3.148a.775.775,0,0,0,.774-.774v-3.1a.775.775,0,0,0-.774-.774V7.742H4.645v5.613a.581.581,0,1,1-1.161,0V7.138a.387.387,0,0,1,.265-.367L6.968,5.7V5.284a2.279,2.279,0,0,0,1.548,0v.463l2.4.4a1.936,1.936,0,0,1,.4.112l6.928,2.771a.536.536,0,0,1-.2,1.034h-.071a.523.523,0,0,1-.188-.034l-6.1-2.288H10.065V23.226H8.129V12.774H7.355V23.226H5.419Zm5.419,4.645V20.21a7.01,7.01,0,0,0,3.016,3.016Zm0,0" fill="#9098d8"/>
  <path id="Path_7750" data-name="Path 7750" d="M344,296v3.1h1.935v-.774h-1.161V296Zm0,0" transform="translate(-327.355 -281.677)" fill="#9098d8"/>
  <path id="Path_7751" data-name="Path 7751" d="M279.176,241.307l.5.588a4.647,4.647,0,0,1,2.633-1.1v1.144h.774v-1.142a4.648,4.648,0,0,1,4.238,4.238h-1.142v.774h1.144a4.643,4.643,0,0,1-1.1,2.632l.588.5a5.415,5.415,0,0,0-7.637-7.636Zm0,0" transform="translate(-265.667 -228.387)" fill="#9098d8"/>
  <path id="Path_7752" data-name="Path 7752" d="M245.806,287.327v-1.144h-.774v1.142a4.648,4.648,0,0,1-4.238-4.238h1.142v-.774h-1.144a4.643,4.643,0,0,1,1.1-2.632l-.588-.5a5.415,5.415,0,0,0,7.637,7.636l-.5-.588A4.642,4.642,0,0,1,245.806,287.327Zm0,0" transform="translate(-228.387 -265.667)" fill="#9098d8"/>
</svg>
