<svg xmlns="http://www.w3.org/2000/svg" width="17.802" height="24.5" viewBox="0 0 17.802 24.5">
  <g id="payroll" transform="translate(-27.888 -9.746)">
    <path id="Path_7753" data-name="Path 7753" d="M44.284,52.006H29.294a1.157,1.157,0,0,1-1.156-1.156V33.239a1.158,1.158,0,0,1,1.156-1.156h3.457a.185.185,0,0,1,0,.369H29.294a.788.788,0,0,0-.787.787V50.85a.788.788,0,0,0,.787.787h14.99a.788.788,0,0,0,.787-.787V33.239a.788.788,0,0,0-.787-.787H40.825a.185.185,0,0,1,0-.369h3.459a1.158,1.158,0,0,1,1.156,1.156V50.85A1.157,1.157,0,0,1,44.284,52.006Z" transform="translate(0 -18.009)" fill="#9098d8" stroke="#9098d8" stroke-width="0.5"/>
    <path id="Path_7754" data-name="Path 7754" d="M60.385,15.7H52.312a.185.185,0,0,1-.185-.185V14.064a2.417,2.417,0,0,1,2.38-2.412,1.853,1.853,0,0,1,3.685,0,2.415,2.415,0,0,1,2.378,2.412v1.454A.185.185,0,0,1,60.385,15.7ZM52.5,15.334h7.7V14.064a2.045,2.045,0,0,0-2.043-2.043h-.139a.185.185,0,0,1-.185-.183,1.484,1.484,0,0,0-2.968,0,.185.185,0,0,1-.185.183h-.139A2.047,2.047,0,0,0,52.5,14.065Z" transform="translate(-19.56)" fill="#9098d8" stroke="#9098d8" stroke-width="0.5"/>
    <path id="Path_7755" data-name="Path 7755" d="M71.069,17.032a.889.889,0,1,1,.888-.89.889.889,0,0,1-.888.89Zm0-1.408a.52.52,0,1,0,.519.518A.52.52,0,0,0,71.069,15.623Z" transform="translate(-34.28 -4.287)" fill="#9098d8" stroke="#9098d8" stroke-width="0.5"/>
    <path id="Path_7756" data-name="Path 7756" d="M39.228,119.812a.185.185,0,0,1-.126-.05l-.934-.876a.185.185,0,0,1,.252-.269l.808.757,1.743-1.633a.185.185,0,1,1,.252.269l-1.869,1.751A.185.185,0,0,1,39.228,119.812Z" transform="translate(-8.133 -87.811)" fill="#9098d8" stroke="#9098d8" stroke-width="0.5"/>
    <path id="Path_7757" data-name="Path 7757" d="M72.283,122.82h-8.56a.185.185,0,1,1,0-.369h8.56a.185.185,0,0,1,0,.369Z" transform="translate(-28.865 -91.694)" fill="#9098d8" stroke="#9098d8" stroke-width="0.5"/>
    <path id="Path_7758" data-name="Path 7758" d="M39.228,101.055a.183.183,0,0,1-.126-.05l-.934-.876a.185.185,0,0,1,.252-.269l.808.757,1.744-1.633a.185.185,0,1,1,.252.269l-1.869,1.752A.185.185,0,0,1,39.228,101.055Z" transform="translate(-8.133 -72.516)" fill="#9098d8" stroke="#9098d8" stroke-width="0.5"/>
    <path id="Path_7759" data-name="Path 7759" d="M72.283,104.061h-8.56a.185.185,0,1,1,0-.369h8.56a.185.185,0,0,1,0,.369Z" transform="translate(-28.865 -76.399)" fill="#9098d8" stroke="#9098d8" stroke-width="0.5"/>
    <path id="Path_7760" data-name="Path 7760" d="M57.885,55.449A4.215,4.215,0,1,1,62.1,51.235,4.215,4.215,0,0,1,57.885,55.449Zm0-8.06a3.845,3.845,0,1,0,3.845,3.845A3.845,3.845,0,0,0,57.885,47.389Z" transform="translate(-20.819 -30.189)" fill="#9098d8" stroke="#9098d8" stroke-width="0.5"/>
    <path id="Path_7761" data-name="Path 7761" d="M79.715,51.419h-4.03a.185.185,0,0,1-.185-.185V47.2a.185.185,0,1,1,.369,0V51.05h3.845a.185.185,0,0,1,0,.369Z" transform="translate(-38.618 -30.189)" fill="#9098d8" stroke="#9098d8" stroke-width="0.5"/>
    <path id="Path_7762" data-name="Path 7762" d="M78.268,72.312a.185.185,0,0,1-.142-.066l-2.583-3.094a.185.185,0,1,1,.284-.236l2.583,3.094a.185.185,0,0,1-.142.3Z" transform="translate(-38.618 -47.988)" fill="#9098d8" stroke="#9098d8" stroke-width="0.5"/>
    <path id="Path_7763" data-name="Path 7763" d="M65.72,72.278a.185.185,0,0,1-.185-.185V69.571a.185.185,0,0,1,.369,0v2.523A.185.185,0,0,1,65.72,72.278Z" transform="translate(-30.493 -48.426)" fill="#9098d8" stroke="#9098d8" stroke-width="0.5"/>
    <path id="Path_7764" data-name="Path 7764" d="M71.444,75.317a.185.185,0,0,1-.185-.185V73.3a.185.185,0,0,1,.369,0v1.835A.185.185,0,0,1,71.444,75.317Z" transform="translate(-35.16 -51.465)" fill="#9098d8" stroke="#9098d8" stroke-width="0.5"/>
    <path id="Path_7765" data-name="Path 7765" d="M77.168,78.356a.185.185,0,0,1-.185-.185V77.025a.185.185,0,0,1,.369,0v1.147A.185.185,0,0,1,77.168,78.356Z" transform="translate(-39.828 -54.504)" fill="#9098d8" stroke="#9098d8" stroke-width="0.5"/>
  </g>
</svg>
