<svg id="report" xmlns="http://www.w3.org/2000/svg" width="17.6" height="24" viewBox="0 0 17.6 24">
  <g id="Group_7187" data-name="Group 7187" transform="translate(0 0)">
    <g id="Group_7186" data-name="Group 7186">
      <path id="Path_11499" data-name="Path 11499" d="M1.6,24H12.069a1.191,1.191,0,0,0,.48-.1c.008,0,.014-.008.021-.011a1.2,1.2,0,0,0,.347-.24l4.332-4.33a1.2,1.2,0,0,0,.237-.345c0-.008.009-.015.012-.024a1.194,1.194,0,0,0,.1-.48V1.6A1.6,1.6,0,0,0,16,0H1.6A1.6,1.6,0,0,0,0,1.6V22.4A1.6,1.6,0,0,0,1.6,24Zm11.2-1.366V19.6a.4.4,0,0,1,.4-.4h3.034ZM.8,1.6A.8.8,0,0,1,1.6.8H16a.8.8,0,0,1,.8.8V18.4H13.2A1.2,1.2,0,0,0,12,19.6v3.6H1.6a.8.8,0,0,1-.8-.8Z" transform="translate(0 0)" fill="#9098d8"/>
      <path id="Path_11500" data-name="Path 11500" d="M5.4,11.4h6a.4.4,0,0,0,0-.8h-.8V8.2a.4.4,0,1,0-.8,0v2.4H9V7.4a.4.4,0,1,0-.8,0v3.2H7.4v-2a.4.4,0,0,0-.8,0v2H5.8V5.4a.4.4,0,0,0-.8,0V11A.4.4,0,0,0,5.4,11.4Z" transform="translate(-3 -3)" fill="#9098d8"/>
      <path id="Path_11501" data-name="Path 11501" d="M24.4,5.8h5.2a.4.4,0,1,0,0-.8H24.4a.4.4,0,0,0,0,.8Z" transform="translate(-14.4 -3)" fill="#9098d8"/>
      <path id="Path_11502" data-name="Path 11502" d="M24.4,19.8h5.2a.4.4,0,1,0,0-.8H24.4a.4.4,0,0,0,0,.8Z" transform="translate(-14.4 -11.4)" fill="#9098d8"/>
      <path id="Path_11503" data-name="Path 11503" d="M24.4,12.8h5.2a.4.4,0,1,0,0-.8H24.4a.4.4,0,0,0,0,.8Z" transform="translate(-14.4 -7.2)" fill="#9098d8"/>
      <path id="Path_11504" data-name="Path 11504" d="M24.8,28H16.4a.4.4,0,1,0,0,.8h8.4a.4.4,0,1,0,0-.8Z" transform="translate(-9.6 -16.8)" fill="#9098d8"/>
      <path id="Path_11505" data-name="Path 11505" d="M24.8,42H16.4a.4.4,0,1,0,0,.8h8.4a.4.4,0,0,0,0-.8Z" transform="translate(-9.6 -25.2)" fill="#9098d8"/>
      <path id="Path_11506" data-name="Path 11506" d="M24.8,35H16.4a.4.4,0,1,0,0,.8h8.4a.4.4,0,1,0,0-.8Z" transform="translate(-9.6 -21)" fill="#9098d8"/>
      <path id="Path_11508" data-name="Path 11508" d="M7.674,25.161,6.8,26.321l-.084-.12a.4.4,0,1,0-.655.459l.4.571a.4.4,0,0,0,.32.171h.008a.4.4,0,0,0,.32-.16l1.2-1.6a.4.4,0,0,0-.64-.48Z" transform="translate(-3.594 -15.001)" fill="#9098d8"/>
      <path id="Path_11509" data-name="Path 11509" d="M7.674,32.161,6.8,33.321l-.084-.12a.4.4,0,1,0-.655.459l.4.571a.4.4,0,0,0,.32.171h.008a.4.4,0,0,0,.32-.16l1.2-1.6a.4.4,0,1,0-.64-.48Z" transform="translate(-3.594 -19.201)" fill="#9098d8"/>
      <path id="Path_11510" data-name="Path 11510" d="M7.674,39.161,6.8,40.321l-.084-.12a.4.4,0,1,0-.655.459l.4.571a.4.4,0,0,0,.32.171h.008a.4.4,0,0,0,.32-.16l1.2-1.6a.4.4,0,0,0-.64-.48Z" transform="translate(-3.594 -23.401)" fill="#9098d8"/>
    </g>
  </g>
</svg>
