<svg xmlns="http://www.w3.org/2000/svg" width="24.5" height="24.5" viewBox="0 0 24.5 24.5">
  <g id="setting" transform="translate(-9.75 -9.75)">
    <path id="Path_7783" data-name="Path 7783" d="M23.152,34h-2.3a.185.185,0,0,1-.178-.135l-.653-2.329a9.65,9.65,0,0,1-3.356-1.39L14.55,31.328a.185.185,0,0,1-.222-.03L12.7,29.671a.185.185,0,0,1-.031-.222l1.182-2.111a9.65,9.65,0,0,1-1.389-3.356l-2.329-.653A.185.185,0,0,1,10,23.152v-2.3a.185.185,0,0,1,.135-.178l2.329-.653a9.684,9.684,0,0,1,1.389-3.356L12.672,14.55a.185.185,0,0,1,.03-.222l1.626-1.63a.185.185,0,0,1,.222-.031l2.114,1.189a9.586,9.586,0,0,1,3.352-1.393l.654-2.329A.185.185,0,0,1,20.849,10h2.3a.185.185,0,0,1,.178.135l.653,2.329a9.6,9.6,0,0,1,3.353,1.393l2.115-1.188a.185.185,0,0,1,.222.03l1.63,1.63a.185.185,0,0,1,.03.222l-1.184,2.112a9.682,9.682,0,0,1,1.389,3.356l2.328.653a.185.185,0,0,1,.135.178v2.3a.185.185,0,0,1-.135.178l-2.329.653a9.651,9.651,0,0,1-1.389,3.356l1.184,2.112a.185.185,0,0,1-.031.222L29.671,31.3a.185.185,0,0,1-.222.03l-2.112-1.182a9.65,9.65,0,0,1-3.356,1.39l-.652,2.329a.185.185,0,0,1-.178.135Zm-2.163-.369h2.023l.646-2.3A.185.185,0,0,1,23.8,31.2a9.284,9.284,0,0,0,3.427-1.419.185.185,0,0,1,.193-.008l2.088,1.168,1.432-1.429L29.77,27.42a.185.185,0,0,1,.008-.193A9.286,9.286,0,0,0,31.2,23.8a.185.185,0,0,1,.131-.142l2.3-.646V20.988l-2.3-.646A.185.185,0,0,1,31.2,20.2a9.322,9.322,0,0,0-1.419-3.427.185.185,0,0,1-.008-.193l1.171-2.088-1.432-1.432-2.092,1.175a.185.185,0,0,1-.194-.008A9.239,9.239,0,0,0,23.8,12.8a.185.185,0,0,1-.142-.131l-.646-2.3H20.988l-.646,2.3a.185.185,0,0,1-.142.131,9.229,9.229,0,0,0-3.423,1.422.185.185,0,0,1-.194.008l-2.091-1.174-1.429,1.432,1.168,2.088a.185.185,0,0,1-.008.193A9.325,9.325,0,0,0,12.8,20.2a.185.185,0,0,1-.131.142l-2.3.646v2.023l2.3.646a.185.185,0,0,1,.131.142,9.289,9.289,0,0,0,1.419,3.427.185.185,0,0,1,.008.193l-1.168,2.088,1.429,1.429,2.088-1.168a.185.185,0,0,1,.193.008A9.286,9.286,0,0,0,20.2,31.2a.185.185,0,0,1,.142.131Z" fill="#9098d8" stroke="#9098d8" stroke-width="0.5"/>
    <path id="Path_7784" data-name="Path 7784" d="M42.668,47.67a5,5,0,1,1,5-5A5,5,0,0,1,42.668,47.67Zm0-9.732A4.732,4.732,0,1,0,47.4,42.671,4.732,4.732,0,0,0,42.668,37.938Z" transform="translate(-20.669 -20.669)" fill="#9098d8" stroke="#9098d8" stroke-width="0.5"/>
  </g>
</svg>
